# xmcd
#
# Track frame offsets:
#	150
#	13800
#	24762
#	38575
#	55575
#	70287
#	81862
#	94977
#	112087
#	126975
#
# Disc length: 1845
#
# Revision: 3
# Processed by: cddbd v1.5.1PL0 Copyright (c) Steve Scherf et al.
# Submitted via: DiscPlay 4.0.2
# Normalized: r1:TDELIM( - ),TSWAP
#
DISCID=7d07330a
DTITLE=The Best Of The Blues - Volume 3
DYEAR=1900
DGENRE=
TTITLE0=Little Milton - Hard Luck Blues
TTITLE1=Billy Stewart - Billy's Blues, Part II
TTITLE2=T-Bone Walker - Party Girl
TTITLE3=B.B. King - No Money, No Luck
TTITLE4=Eddie Boyd - Third Degree
TTITLE5=Little Jr. Parker - Stand By Me
TTITLE6=B.B. King - Rainin' All the Time
TTITLE7=Brownie McGhee and Sonny Terry - Hole in the Wall
TTITLE8=Muddy Waters - She's Nineteen Years Old
TTITLE9=Bobby Bland and Little Jr. Parker - Mother-in-Law Blues
EXTD=
EXTT0=
EXTT1=
EXTT2=
EXTT3=
EXTT4=
EXTT5=
EXTT6=
EXTT7=
EXTT8=
EXTT9=
PLAYORDER=
